<svg xmlns="http://www.w3.org/2000/svg" width="512" height="512" viewBox="0 0 512 512" version="1.1"><path d="M 230.962 178.250 C 224.979 181.267, 221.472 187.915, 222.537 194.219 C 223.964 202.667, 232.627 208.231, 241.701 206.528 C 246.966 205.541, 252.535 199.713, 253.463 194.219 C 254.528 187.915, 251.021 181.267, 245.038 178.250 C 242.584 177.012, 239.417 176, 238 176 C 236.583 176, 233.416 177.012, 230.962 178.250 M 405 178.186 C 401.631 179.919, 399.911 181.686, 398.157 185.222 C 394.955 191.677, 395.838 197.073, 400.929 202.164 C 407.367 208.603, 416.652 208.583, 423.118 202.118 C 435.485 189.751, 420.640 170.142, 405 178.186 M 93.250 179.606 C 92.269 180.046, 92 194.031, 92 244.658 L 92 309.149 123.750 308.748 C 150.144 308.414, 156.596 308.048, 162 306.574 C 177.505 302.345, 191.452 292.617, 198.364 281.209 C 210.804 260.681, 210.689 227.711, 198.110 208.310 C 189.920 195.677, 176.307 186.352, 159.500 181.861 C 152.404 179.965, 148.279 179.685, 123 179.384 C 107.325 179.197, 93.938 179.297, 93.250 179.606 M 121 244.500 L 121 286 128.250 285.992 C 147.728 285.972, 159.274 282.726, 166.864 275.136 C 181.932 260.068, 181.928 228.928, 166.856 213.856 C 159.275 206.275, 147.721 203.028, 128.250 203.008 L 121 203 121 244.500 M 304.263 218.514 C 287.499 222.156, 273.883 235.532, 270.061 252.112 C 268.759 257.756, 268.759 271.244, 270.061 276.888 C 273.810 293.152, 286.702 306.083, 303.542 310.469 C 315.718 313.640, 332.555 311.698, 342.750 305.945 L 348 302.983 348 308.877 C 348 317.509, 344.124 324.547, 337.492 327.956 C 332.824 330.355, 331.712 330.494, 318.021 330.404 C 306.502 330.327, 302.156 329.892, 297 328.298 C 293.425 327.193, 289.825 326.111, 289 325.894 C 287.753 325.566, 287.452 327.204, 287.217 335.615 L 286.933 345.730 289.717 346.851 C 298.493 350.385, 305.795 351.457, 321 351.443 C 332.810 351.432, 338.048 351, 343 349.630 C 356.710 345.837, 366.994 337.926, 371.966 327.349 C 376.548 317.601, 376.964 312.412, 376.983 264.750 L 377 220 363 220 L 349 220 349 224.589 L 349 229.178 345.750 226.431 C 336.270 218.421, 319.459 215.213, 304.263 218.514 M 224 264.500 L 224 309 238 309 L 252 309 252 264.500 L 252 220 238 220 L 224 220 224 264.500 M 398 264.500 L 398 309 412 309 L 426 309 426 264.500 L 426 220 412 220 L 398 220 398 264.500 M 311.105 242.635 C 301.963 247.191, 297.294 256.109, 298.283 267.125 C 299.612 281.933, 310.441 290.961, 325.432 289.757 C 332.392 289.199, 336.978 287.208, 341.835 282.638 C 347.096 277.689, 348 275.102, 348 265 C 348 254.393, 347.038 251.964, 340.593 246.291 C 332.672 239.318, 320.731 237.838, 311.105 242.635" stroke="none" fill="#f7f8f8" fill-rule="evenodd"/><path d="M 0 256.002 L 0 512.004 256.250 511.752 L 512.500 511.500 512.752 255.750 L 513.004 0 256.502 0 L 0 0 0 256.002 M 0.492 256.500 C 0.492 397.300, 0.608 454.751, 0.750 384.170 C 0.892 313.588, 0.892 198.388, 0.750 128.170 C 0.608 57.951, 0.492 115.700, 0.492 256.500 M 230.962 178.250 C 224.979 181.267, 221.472 187.915, 222.537 194.219 C 223.964 202.667, 232.627 208.231, 241.701 206.528 C 246.966 205.541, 252.535 199.713, 253.463 194.219 C 254.528 187.915, 251.021 181.267, 245.038 178.250 C 242.584 177.012, 239.417 176, 238 176 C 236.583 176, 233.416 177.012, 230.962 178.250 M 405 178.186 C 401.631 179.919, 399.911 181.686, 398.157 185.222 C 394.955 191.677, 395.838 197.073, 400.929 202.164 C 407.367 208.603, 416.652 208.583, 423.118 202.118 C 435.485 189.751, 420.640 170.142, 405 178.186 M 93.250 179.606 C 92.269 180.046, 92 194.031, 92 244.658 L 92 309.149 123.750 308.748 C 150.144 308.414, 156.596 308.048, 162 306.574 C 177.505 302.345, 191.452 292.617, 198.364 281.209 C 210.804 260.681, 210.689 227.711, 198.110 208.310 C 189.920 195.677, 176.307 186.352, 159.500 181.861 C 152.404 179.965, 148.279 179.685, 123 179.384 C 107.325 179.197, 93.938 179.297, 93.250 179.606 M 121 244.500 L 121 286 128.250 285.992 C 147.728 285.972, 159.274 282.726, 166.864 275.136 C 181.932 260.068, 181.928 228.928, 166.856 213.856 C 159.275 206.275, 147.721 203.028, 128.250 203.008 L 121 203 121 244.500 M 304.263 218.514 C 287.499 222.156, 273.883 235.532, 270.061 252.112 C 268.759 257.756, 268.759 271.244, 270.061 276.888 C 273.810 293.152, 286.702 306.083, 303.542 310.469 C 315.718 313.640, 332.555 311.698, 342.750 305.945 L 348 302.983 348 308.877 C 348 317.509, 344.124 324.547, 337.492 327.956 C 332.824 330.355, 331.712 330.494, 318.021 330.404 C 306.502 330.327, 302.156 329.892, 297 328.298 C 293.425 327.193, 289.825 326.111, 289 325.894 C 287.753 325.566, 287.452 327.204, 287.217 335.615 L 286.933 345.730 289.717 346.851 C 298.493 350.385, 305.795 351.457, 321 351.443 C 332.810 351.432, 338.048 351, 343 349.630 C 356.710 345.837, 366.994 337.926, 371.966 327.349 C 376.548 317.601, 376.964 312.412, 376.983 264.750 L 377 220 363 220 L 349 220 349 224.589 L 349 229.178 345.750 226.431 C 336.270 218.421, 319.459 215.213, 304.263 218.514 M 224 264.500 L 224 309 238 309 L 252 309 252 264.500 L 252 220 238 220 L 224 220 224 264.500 M 398 264.500 L 398 309 412 309 L 426 309 426 264.500 L 426 220 412 220 L 398 220 398 264.500 M 311.105 242.635 C 301.963 247.191, 297.294 256.109, 298.283 267.125 C 299.612 281.933, 310.441 290.961, 325.432 289.757 C 332.392 289.199, 336.978 287.208, 341.835 282.638 C 347.096 277.689, 348 275.102, 348 265 C 348 254.393, 347.038 251.964, 340.593 246.291 C 332.672 239.318, 320.731 237.838, 311.105 242.635" stroke="none" fill="#0c2434" fill-rule="evenodd"/></svg>